<?xml version="1.0" encoding="UTF-8" ?>
<!DOCTYPE svg PUBLIC "-//W3C//DTD SVG 1.1//EN" "http://www.w3.org/Graphics/SVG/1.1/DTD/svg11.dtd">
<svg width="425pt" height="444pt" viewBox="0 0 425 444" version="1.1" xmlns="http://www.w3.org/2000/svg">
<g id="#fdfefdff">
</g>
<g id="#6ffffaff">
<path fill="#6ffffa" opacity="1.00" d=" M 219.67 6.43 C 220.27 5.22 221.92 5.10 222.52 6.39 C 231.79 17.66 240.84 29.11 249.63 40.75 C 244.45 46.73 238.50 51.98 233.03 57.70 C 228.88 61.31 225.63 65.97 221.00 69.00 C 217.12 66.29 214.31 62.38 210.75 59.30 C 204.90 52.94 198.32 47.27 192.75 40.66 C 201.47 29.05 210.66 17.81 219.67 6.43 Z" />
</g>
<g id="#87b3cfff">
<path fill="#87b3cf" opacity="1.00" d=" M 178.21 59.74 C 183.04 53.37 187.52 46.71 192.75 40.66 C 198.32 47.27 204.90 52.94 210.75 59.30 C 203.51 59.97 196.24 59.73 188.99 59.97 C 185.40 60.00 181.64 61.34 178.21 59.74 Z" />
</g>
<g id="#83b0cdff">
<path fill="#83b0cd" opacity="1.00" d=" M 249.63 40.75 C 253.81 46.14 258.11 51.45 261.89 57.13 C 261.70 60.07 262.34 62.95 263.17 65.74 C 261.16 65.47 259.15 65.22 257.13 64.98 C 258.04 64.32 258.96 63.65 259.87 62.99 C 251.76 60.52 243.18 60.75 234.84 61.70 C 234.24 60.37 233.64 59.03 233.03 57.70 C 238.50 51.98 244.45 46.73 249.63 40.75 Z" />
</g>
<g id="#8db9d4ff">
<path fill="#8db9d4" opacity="1.00" d=" M 221.00 69.00 C 225.63 65.97 228.88 61.31 233.03 57.70 C 233.64 59.03 234.24 60.37 234.84 61.70 C 243.18 60.75 251.76 60.52 259.87 62.99 C 258.96 63.65 258.04 64.32 257.13 64.98 C 259.15 65.22 261.16 65.47 263.17 65.74 C 262.34 62.95 261.70 60.07 261.89 57.13 C 268.61 65.47 274.44 74.48 280.64 83.21 C 270.55 88.28 261.41 94.96 251.71 100.71 C 251.34 100.94 250.59 101.39 250.22 101.62 C 241.14 90.68 231.26 80.44 221.63 69.99 C 217.91 73.23 214.53 76.82 210.92 80.17 C 212.14 77.58 216.19 74.47 213.30 71.66 C 208.75 71.34 204.61 74.04 200.05 73.97 C 192.41 74.02 184.76 73.94 177.12 73.69 C 174.72 73.53 172.73 75.04 170.69 76.06 C 170.38 74.53 170.07 73.00 169.76 71.47 C 172.55 67.54 175.37 63.63 178.21 59.74 C 181.64 61.34 185.40 60.00 188.99 59.97 C 196.24 59.73 203.51 59.97 210.75 59.30 C 214.31 62.38 217.12 66.29 221.00 69.00 Z" />
</g>
<g id="#5bb6dcff">
<path fill="#5bb6dc" opacity="1.00" d=" M 210.92 80.17 C 214.53 76.82 217.91 73.23 221.63 69.99 C 231.26 80.44 241.14 90.68 250.22 101.62 C 243.71 105.48 237.81 110.33 230.99 113.65 C 227.82 109.56 224.60 105.50 221.22 101.58 C 220.30 102.52 219.39 103.46 218.48 104.40 C 215.41 106.86 212.57 109.59 209.91 112.49 C 203.51 109.83 198.02 105.54 192.42 101.54 L 192.47 101.49 C 198.03 93.88 205.15 87.61 210.92 80.17 Z" />
</g>
<g id="#97c1d8ff">
<path fill="#97c1d8" opacity="1.00" d=" M 200.05 73.97 C 204.61 74.04 208.75 71.34 213.30 71.66 C 216.19 74.47 212.14 77.58 210.92 80.17 C 205.15 87.61 198.03 93.88 192.47 101.49 C 181.67 96.28 172.45 88.23 161.47 83.32 C 164.25 79.38 167.04 75.45 169.76 71.47 C 170.07 73.00 170.38 74.53 170.69 76.06 C 172.73 75.04 174.72 73.53 177.12 73.69 C 184.76 73.94 192.41 74.02 200.05 73.97 Z" />
</g>
<g id="#6d9ebbff">
<path fill="#6d9ebb" opacity="1.00" d=" M 161.47 83.32 C 172.45 88.23 181.67 96.28 192.47 101.49 L 192.42 101.54 C 187.16 107.13 182.27 113.05 177.28 118.87 C 173.45 121.11 169.85 123.70 166.27 126.30 C 163.60 128.40 159.92 126.56 157.04 128.06 C 154.43 129.30 151.44 131.24 148.58 129.45 C 147.18 127.98 146.33 126.11 145.33 124.36 C 143.24 124.28 140.18 122.34 138.88 124.86 C 136.52 128.81 136.30 133.73 133.41 137.42 C 128.65 143.32 128.06 151.33 123.40 157.28 C 124.31 152.38 126.23 147.77 128.19 143.21 C 136.87 122.02 148.78 102.32 161.47 83.32 Z" />
</g>
<g id="#6a9bbaff">
<path fill="#6a9bba" opacity="1.00" d=" M 251.71 100.71 C 261.41 94.96 270.55 88.28 280.64 83.21 C 291.48 99.48 301.75 116.21 309.99 133.97 C 312.81 140.75 316.31 147.33 317.89 154.56 C 312.81 148.97 312.46 140.92 308.03 134.95 C 305.77 131.85 304.25 128.31 303.06 124.69 C 302.18 125.13 301.30 125.56 300.43 126.00 C 301.51 127.22 302.56 128.46 303.61 129.71 C 299.48 128.67 295.29 127.51 290.99 127.97 C 285.71 128.10 279.83 130.40 275.07 127.04 C 271.48 125.30 269.95 121.46 267.47 118.60 C 264.79 116.27 261.70 114.40 259.39 111.65 C 256.70 108.84 253.62 104.66 249.17 106.18 C 250.00 104.35 250.80 102.50 251.71 100.71 Z" />
</g>
<g id="#61a2c4ff">
<path fill="#61a2c4" opacity="1.00" d=" M 250.22 101.62 C 250.59 101.39 251.34 100.94 251.71 100.71 C 250.80 102.50 250.00 104.35 249.17 106.18 C 253.62 104.66 256.70 108.84 259.39 111.65 C 261.70 114.40 264.79 116.27 267.47 118.60 C 269.95 121.46 271.48 125.30 275.07 127.04 C 279.83 130.40 285.71 128.10 290.99 127.97 C 295.29 127.51 299.48 128.67 303.61 129.71 C 302.56 128.46 301.51 127.22 300.43 126.00 C 301.30 125.56 302.18 125.13 303.06 124.69 C 304.25 128.31 305.77 131.85 308.03 134.95 C 312.46 140.92 312.81 148.97 317.89 154.56 C 320.14 158.98 320.92 164.00 322.35 168.73 C 321.46 169.54 320.57 170.36 319.68 171.18 C 319.63 168.70 320.20 166.04 319.22 163.71 C 316.47 161.27 312.41 162.11 309.07 162.25 C 304.62 162.86 300.32 161.22 295.95 160.74 C 291.53 160.45 289.60 154.90 285.06 154.98 C 279.93 154.79 274.59 155.62 269.77 153.37 C 269.12 154.46 268.47 155.55 267.84 156.65 C 267.26 154.04 265.17 152.39 263.08 150.99 C 264.54 157.97 264.97 165.15 267.01 172.00 C 268.04 175.11 267.65 178.39 267.33 181.57 C 265.29 163.93 255.85 148.40 246.12 133.98 C 241.35 127.00 236.21 120.30 230.99 113.65 C 237.81 110.33 243.71 105.48 250.22 101.62 Z" />
</g>
<g id="#639ebfff">
<path fill="#639ebf" opacity="1.00" d=" M 177.28 118.87 C 182.27 113.05 187.16 107.13 192.42 101.54 C 198.02 105.54 203.51 109.83 209.91 112.49 C 204.41 118.07 198.82 123.57 193.31 129.14 C 193.32 127.65 193.34 126.15 193.35 124.66 C 188.62 123.10 183.37 122.80 178.68 124.68 C 176.49 125.86 175.37 128.25 173.89 130.14 C 173.39 129.77 172.39 129.02 171.89 128.65 C 173.53 125.31 175.18 121.96 177.28 118.87 Z" />
</g>
<g id="#fcfdfcff">
</g>
<g id="#392e76ff">
<path fill="#392e76" opacity="1.00" d=" M 209.91 112.49 C 212.57 109.59 215.41 106.86 218.48 104.40 C 207.97 117.71 197.37 131.02 188.58 145.56 C 181.97 156.74 175.93 168.82 174.97 181.99 C 173.92 193.98 177.58 206.30 185.33 215.55 C 192.41 224.23 202.78 230.28 213.91 231.85 C 225.47 233.68 237.66 231.02 247.33 224.38 C 244.81 228.47 241.15 231.60 237.74 234.91 C 233.51 238.87 229.66 243.21 225.43 247.17 C 219.64 252.62 214.35 258.57 208.54 264.00 C 203.42 268.67 198.97 274.05 193.67 278.53 C 192.16 279.45 190.87 280.65 189.62 281.90 C 189.16 281.92 188.71 281.96 188.25 281.99 C 185.84 285.13 182.37 288.00 182.36 292.31 C 169.84 287.01 158.22 279.63 148.45 270.14 C 150.69 267.38 152.80 264.48 155.52 262.16 C 160.79 258.14 162.84 251.40 164.32 245.21 C 165.41 239.52 168.12 233.98 167.18 228.06 C 166.26 220.01 167.65 211.99 167.98 203.97 C 168.26 199.88 163.58 197.90 163.07 194.05 C 162.11 189.20 161.71 184.27 161.34 179.35 C 161.15 175.54 158.49 172.54 156.60 169.43 C 157.35 167.47 158.10 165.50 158.97 163.59 C 170.47 152.16 181.76 140.51 193.31 129.14 C 198.82 123.57 204.41 118.07 209.91 112.49 Z" />
</g>
<g id="#60a4c5ff">
<path fill="#60a4c5" opacity="1.00" d=" M 166.27 126.30 C 169.85 123.70 173.45 121.11 177.28 118.87 C 175.18 121.96 173.53 125.31 171.89 128.65 C 172.39 129.02 173.39 129.77 173.89 130.14 C 175.37 128.25 176.49 125.86 178.68 124.68 C 183.37 122.80 188.62 123.10 193.35 124.66 C 193.34 126.15 193.32 127.65 193.31 129.14 C 181.76 140.51 170.47 152.16 158.97 163.59 C 155.97 166.56 152.88 169.44 149.91 172.44 C 151.37 169.52 153.25 166.86 155.40 164.43 C 149.10 162.19 145.44 169.02 142.04 173.03 C 140.93 171.80 139.94 170.45 138.61 169.45 C 135.18 169.45 131.76 169.94 128.33 170.01 C 125.69 171.19 123.31 172.91 120.62 174.01 C 120.32 176.50 119.71 178.94 118.90 181.31 C 118.91 179.17 118.92 177.02 118.94 174.88 C 119.41 168.85 121.15 162.87 123.40 157.28 C 128.06 151.33 128.65 143.32 133.41 137.42 C 136.30 133.73 136.52 128.81 138.88 124.86 C 140.18 122.34 143.24 124.28 145.33 124.36 C 146.33 126.11 147.18 127.98 148.58 129.45 C 151.44 131.24 154.43 129.30 157.04 128.06 C 159.92 126.56 163.60 128.40 166.27 126.30 Z" />
</g>
<g id="#50a1c7ff">
<path fill="#50a1c7" opacity="1.00" d=" M 263.08 150.99 C 265.17 152.39 267.26 154.04 267.84 156.65 C 268.47 155.55 269.12 154.46 269.77 153.37 C 274.59 155.62 279.93 154.79 285.06 154.98 C 289.60 154.90 291.53 160.45 295.95 160.74 C 300.32 161.22 304.62 162.86 309.07 162.25 C 312.41 162.11 316.47 161.27 319.22 163.71 C 320.20 166.04 319.63 168.70 319.68 171.18 C 320.57 170.36 321.46 169.54 322.35 168.73 C 323.06 173.35 324.38 177.92 324.38 182.62 C 324.33 183.20 324.23 184.38 324.18 184.96 C 322.21 183.50 320.32 181.61 317.80 181.22 C 312.87 180.43 307.88 181.27 302.93 180.83 C 299.21 180.49 295.74 178.78 291.99 178.69 C 287.88 178.79 284.13 180.97 280.01 180.95 C 277.11 181.09 274.14 180.54 271.30 181.27 C 269.78 182.32 268.58 183.74 267.30 185.05 C 267.30 183.88 267.31 182.73 267.33 181.57 C 267.65 178.39 268.04 175.11 267.01 172.00 C 264.97 165.15 264.54 157.97 263.08 150.99 Z" />
</g>
<g id="#499fc7ff">
<path fill="#499fc7" opacity="1.00" d=" M 142.04 173.03 C 145.44 169.02 149.10 162.19 155.40 164.43 C 153.25 166.86 151.37 169.52 149.91 172.44 C 145.60 177.37 140.75 181.80 136.21 186.53 C 134.21 188.38 132.16 190.20 130.28 192.19 C 129.56 191.48 128.84 190.77 128.12 190.07 C 127.83 190.91 127.54 191.75 127.25 192.59 C 126.58 192.28 125.90 191.98 125.23 191.68 C 124.08 192.71 122.94 193.74 121.80 194.78 C 120.76 192.96 119.70 191.15 118.60 189.37 C 117.46 194.27 118.09 199.29 117.97 204.26 C 117.91 205.52 117.86 206.78 117.82 208.05 C 116.52 200.07 116.79 191.92 117.55 183.90 C 117.84 181.32 117.27 178.77 116.95 176.24 L 118.29 177.12 C 118.46 176.56 118.78 175.44 118.94 174.88 C 118.92 177.02 118.91 179.17 118.90 181.31 C 119.71 178.94 120.32 176.50 120.62 174.01 C 123.31 172.91 125.69 171.19 128.33 170.01 C 131.76 169.94 135.18 169.45 138.61 169.45 C 139.94 170.45 140.93 171.80 142.04 173.03 Z" />
</g>
<g id="#393e84ff">
<path fill="#393e84" opacity="1.00" d=" M 149.91 172.44 C 152.88 169.44 155.97 166.56 158.97 163.59 C 158.10 165.50 157.35 167.47 156.60 169.43 C 158.49 172.54 161.15 175.54 161.34 179.35 C 161.71 184.27 162.11 189.20 163.07 194.05 C 163.58 197.90 168.26 199.88 167.98 203.97 C 167.65 211.99 166.26 220.01 167.18 228.06 C 168.12 233.98 165.41 239.52 164.32 245.21 C 162.84 251.40 160.79 258.14 155.52 262.16 C 152.80 264.48 150.69 267.38 148.45 270.14 C 138.05 259.83 129.69 247.45 124.26 233.84 C 124.92 233.24 125.59 232.65 126.28 232.07 C 127.83 231.88 129.68 232.21 130.94 231.07 C 133.66 225.36 134.52 219.01 135.03 212.77 C 136.51 207.71 137.10 202.49 136.67 197.23 C 135.71 195.89 134.54 194.64 133.90 193.10 C 134.33 190.81 135.37 188.69 136.21 186.53 C 140.75 181.80 145.60 177.37 149.91 172.44 Z" />
</g>
<g id="#3f9bc6ff">
<path fill="#3f9bc6" opacity="1.00" d=" M 280.01 180.95 C 284.13 180.97 287.88 178.79 291.99 178.69 C 295.74 178.78 299.21 180.49 302.93 180.83 C 307.88 181.27 312.87 180.43 317.80 181.22 C 320.32 181.61 322.21 183.50 324.18 184.96 C 323.64 188.69 324.24 192.59 323.19 196.22 C 321.65 197.84 319.45 198.57 317.49 199.54 C 312.69 195.95 306.51 197.30 300.96 197.14 C 290.15 197.32 279.31 196.59 268.55 197.85 C 268.08 195.71 267.58 193.57 267.22 191.42 C 267.26 189.29 267.29 187.17 267.30 185.05 C 268.58 183.74 269.78 182.32 271.30 181.27 C 274.14 180.54 277.11 181.09 280.01 180.95 Z" />
</g>
<g id="#398bbaff">
<path fill="#398bba" opacity="1.00" d=" M 324.38 182.62 C 325.66 192.51 325.35 202.54 323.94 212.39 L 323.75 212.44 C 323.35 212.54 322.55 212.74 322.15 212.84 C 321.52 214.75 321.04 216.71 320.54 218.67 C 316.35 218.66 312.16 218.90 307.98 218.86 C 303.23 218.88 298.76 216.84 294.01 216.81 C 282.55 216.89 270.97 216.74 259.78 219.55 C 259.66 218.29 259.45 217.02 259.56 215.75 C 260.61 214.02 262.23 212.72 263.64 211.29 C 262.74 210.76 261.85 210.24 260.97 209.72 C 264.35 204.14 266.23 197.83 267.22 191.42 C 267.58 193.57 268.08 195.71 268.55 197.85 C 279.31 196.59 290.15 197.32 300.96 197.14 C 306.51 197.30 312.69 195.95 317.49 199.54 C 319.45 198.57 321.65 197.84 323.19 196.22 C 324.24 192.59 323.64 188.69 324.18 184.96 C 324.23 184.38 324.33 183.20 324.38 182.62 Z" />
</g>
<g id="#375090ff">
<path fill="#375090" opacity="1.00" d=" M 130.28 192.19 C 132.16 190.20 134.21 188.38 136.21 186.53 C 135.37 188.69 134.33 190.81 133.90 193.10 C 134.54 194.64 135.71 195.89 136.67 197.23 C 137.10 202.49 136.51 207.71 135.03 212.77 C 134.52 219.01 133.66 225.36 130.94 231.07 C 129.68 232.21 127.83 231.88 126.28 232.07 C 125.59 232.65 124.92 233.24 124.26 233.84 C 121.10 225.54 118.55 216.94 117.82 208.05 C 117.86 206.78 117.91 205.52 117.97 204.26 C 122.50 200.69 126.34 196.37 130.28 192.19 Z" />
</g>
<g id="#3a95bfff">
<path fill="#3a95bf" opacity="1.00" d=" M 117.97 204.26 C 118.09 199.29 117.46 194.27 118.60 189.37 C 119.70 191.15 120.76 192.96 121.80 194.78 C 122.94 193.74 124.08 192.71 125.23 191.68 C 125.90 191.98 126.58 192.28 127.25 192.59 C 127.54 191.75 127.83 190.91 128.12 190.07 C 128.84 190.77 129.56 191.48 130.28 192.19 C 126.34 196.37 122.50 200.69 117.97 204.26 Z" />
</g>
<g id="#3876aaff">
<path fill="#3876aa" opacity="1.00" d=" M 260.97 209.72 C 261.85 210.24 262.74 210.76 263.64 211.29 C 262.23 212.72 260.61 214.02 259.56 215.75 C 259.45 217.02 259.66 218.29 259.78 219.55 C 270.97 216.74 282.55 216.89 294.01 216.81 C 298.76 216.84 303.23 218.88 307.98 218.86 C 312.16 218.90 316.35 218.66 320.54 218.67 C 321.04 216.71 321.52 214.75 322.15 212.84 C 322.55 212.74 323.35 212.54 323.75 212.44 C 322.69 220.68 320.05 228.60 316.89 236.25 L 316.73 236.29 C 313.41 236.90 310.34 238.38 307.03 239.02 C 302.55 239.30 298.49 236.68 294.01 236.75 C 288.53 236.79 283.06 238.14 277.57 237.37 C 270.38 236.22 263.17 237.63 255.98 237.89 C 249.85 238.18 243.65 239.57 237.57 238.06 C 237.62 237.01 237.68 235.96 237.74 234.91 C 241.15 231.60 244.81 228.47 247.33 224.38 C 252.68 220.34 257.67 215.63 260.97 209.72 Z" />
</g>
<g id="#37649fff">
<path fill="#37649f" opacity="1.00" d=" M 225.43 247.17 C 229.66 243.21 233.51 238.87 237.74 234.91 C 237.68 235.96 237.62 237.01 237.57 238.06 C 243.65 239.57 249.85 238.18 255.98 237.89 C 263.17 237.63 270.38 236.22 277.57 237.37 C 283.06 238.14 288.53 236.79 294.01 236.75 C 298.49 236.68 302.55 239.30 307.03 239.02 C 310.34 238.38 313.41 236.90 316.73 236.29 C 315.45 240.13 313.43 243.65 311.41 247.15 C 310.06 247.32 308.72 247.51 307.38 247.69 C 306.75 249.23 306.12 250.77 305.49 252.31 C 299.72 251.10 293.83 252.51 288.00 252.11 C 276.21 251.61 264.37 252.75 252.61 251.51 C 248.09 251.17 243.61 252.38 239.08 251.95 C 235.99 251.61 232.92 252.25 229.84 252.25 C 227.72 251.28 226.78 248.93 225.43 247.17 Z" />
</g>
<g id="#375693ff">
<path fill="#375693" opacity="1.00" d=" M 208.54 264.00 C 214.35 258.57 219.64 252.62 225.43 247.17 C 226.78 248.93 227.72 251.28 229.84 252.25 C 232.92 252.25 235.99 251.61 239.08 251.95 C 243.61 252.38 248.09 251.17 252.61 251.51 C 264.37 252.75 276.21 251.61 288.00 252.11 C 293.83 252.51 299.72 251.10 305.49 252.31 C 306.12 250.77 306.75 249.23 307.38 247.69 C 308.72 247.51 310.06 247.32 311.41 247.15 C 307.48 254.18 302.66 260.75 297.06 266.55 L 296.97 266.57 C 287.55 269.76 277.58 266.95 267.99 268.73 C 262.55 269.52 257.05 269.10 251.62 268.50 C 243.91 267.57 236.13 268.74 228.44 267.57 C 224.84 266.92 221.47 268.57 217.99 269.10 C 214.96 269.11 212.23 267.57 209.49 266.47 C 209.25 265.85 208.78 264.61 208.54 264.00 Z" />
</g>
<g id="#384487ff">
<path fill="#384487" opacity="1.00" d=" M 193.67 278.53 C 198.97 274.05 203.42 268.67 208.54 264.00 C 208.78 264.61 209.25 265.85 209.49 266.47 C 212.23 267.57 214.96 269.11 217.99 269.10 C 221.47 268.57 224.84 266.92 228.44 267.57 C 236.13 268.74 243.91 267.57 251.62 268.50 C 257.05 269.10 262.55 269.52 267.99 268.73 C 277.58 266.95 287.55 269.76 296.97 266.57 C 288.62 275.88 278.27 283.32 267.13 288.93 C 265.11 288.05 263.14 287.10 261.23 286.01 C 258.19 286.82 255.14 287.62 252.02 288.10 C 245.91 285.92 239.37 287.04 233.04 286.83 C 222.46 287.04 211.81 286.04 201.34 287.94 C 197.23 287.33 193.11 286.37 188.95 287.34 C 190.46 284.37 191.99 281.40 193.67 278.53 Z" />
</g>
<g id="#39357cff">
<path fill="#39357c" opacity="1.00" d=" M 189.62 281.90 C 190.87 280.65 192.16 279.45 193.67 278.53 C 191.99 281.40 190.46 284.37 188.95 287.34 C 193.11 286.37 197.23 287.33 201.34 287.94 C 211.81 286.04 222.46 287.04 233.04 286.83 C 239.37 287.04 245.91 285.92 252.02 288.10 C 255.14 287.62 258.19 286.82 261.23 286.01 C 263.14 287.10 265.11 288.05 267.13 288.93 C 249.53 297.52 229.50 301.32 210.00 299.12 C 200.51 298.18 191.31 295.50 182.36 292.31 C 182.37 288.00 185.84 285.13 188.25 281.99 C 188.71 281.96 189.16 281.92 189.62 281.90 Z" />
</g>
<g id="#9b9d9bff">
<path fill="#9b9d9b" opacity="1.00" d=" M 157.51 302.78 C 163.65 302.17 169.85 302.69 175.97 301.73 C 203.31 301.15 230.66 301.17 258.00 301.53 C 265.15 301.46 272.25 302.49 279.40 302.63 C 290.68 304.22 302.13 304.61 313.34 306.73 C 315.73 307.26 317.99 308.19 320.25 309.11 C 318.45 310.47 316.56 311.78 314.33 312.29 C 303.09 315.19 291.45 315.80 280.00 317.52 C 264.09 319.78 248.01 320.80 232.14 323.32 C 218.73 324.36 205.28 323.29 191.96 321.75 C 185.85 321.23 179.72 320.66 173.68 319.55 C 166.88 318.05 159.91 317.69 153.04 316.65 C 142.11 315.02 130.74 314.61 120.52 309.99 C 123.94 306.92 128.66 306.51 132.99 305.84 C 141.15 304.66 149.38 304.08 157.51 302.78 Z" />
</g>
<g id="#d2d3d2ff">
<path fill="#d2d3d2" opacity="1.00" d=" M 279.40 302.63 C 290.27 301.63 301.22 303.24 312.02 304.49 C 318.57 305.23 325.08 306.27 331.46 307.94 C 331.39 308.98 331.36 310.02 331.16 311.05 C 318.20 315.13 304.52 315.93 291.18 318.10 C 276.15 319.90 261.11 321.67 246.03 322.99 C 241.42 323.32 236.75 324.23 232.14 323.32 C 248.01 320.80 264.09 319.78 280.00 317.52 C 291.45 315.80 303.09 315.19 314.33 312.29 C 316.56 311.78 318.45 310.47 320.25 309.11 C 317.99 308.19 315.73 307.26 313.34 306.73 C 302.13 304.61 290.68 304.22 279.40 302.63 Z" />
</g>
<g id="#d9dad9ff">
<path fill="#d9dad9" opacity="1.00" d=" M 108.45 308.27 C 119.64 304.79 131.39 304.09 142.98 302.90 C 147.80 302.50 152.70 301.88 157.51 302.78 C 149.38 304.08 141.15 304.66 132.99 305.84 C 128.66 306.51 123.94 306.92 120.52 309.99 C 130.74 314.61 142.11 315.02 153.04 316.65 C 159.91 317.69 166.88 318.05 173.68 319.55 C 171.25 320.90 168.49 320.30 165.91 320.00 C 153.77 318.26 141.58 316.96 129.44 315.32 C 122.36 314.17 115.18 313.19 108.49 310.47 C 108.48 309.92 108.46 308.82 108.45 308.27 Z" />
</g>
<g id="#0a2850ff">
<path fill="#0a2850" opacity="1.00" d=" M 74.32 346.22 C 76.77 340.46 82.65 336.35 88.94 336.16 C 94.22 336.04 99.84 335.74 104.74 338.11 C 107.33 339.29 109.66 340.93 112.00 342.55 C 109.58 345.51 107.95 349.62 104.98 351.81 C 99.50 349.08 92.89 345.64 86.88 348.97 C 87.07 350.53 86.88 352.56 88.65 353.29 C 95.39 356.57 103.88 356.09 109.54 361.55 C 113.22 364.57 113.45 369.77 112.82 374.12 C 112.08 380.49 106.19 385.17 100.14 386.21 C 90.15 388.24 79.05 385.66 71.36 378.83 C 73.58 375.61 75.92 372.45 78.75 369.73 C 83.73 373.22 89.71 375.98 95.92 375.43 C 97.79 375.36 99.69 374.12 99.69 372.08 C 100.01 370.42 98.09 369.69 96.95 369.02 C 90.76 366.36 83.42 366.25 77.97 362.00 C 73.16 358.41 72.66 351.55 74.32 346.22 Z" />
</g>
<g id="#092851ff">
<path fill="#092851" opacity="1.00" d=" M 326.25 336.42 C 330.73 336.39 335.21 336.37 339.70 336.42 C 339.86 345.28 339.73 354.15 339.70 363.01 C 339.75 365.82 339.86 368.94 341.75 371.21 C 344.99 375.30 351.91 375.07 355.22 371.18 C 357.15 368.54 357.04 365.11 357.07 362.00 C 356.99 353.48 356.94 344.96 357.03 336.45 C 361.62 336.44 366.20 336.43 370.79 336.45 C 370.74 345.96 370.88 355.46 370.73 364.97 C 370.43 370.84 369.11 377.34 364.42 381.35 C 358.79 386.65 350.35 387.05 343.08 386.13 C 336.81 385.54 330.67 381.68 328.25 375.74 C 325.85 370.51 325.93 364.64 325.97 359.02 C 326.06 351.49 325.77 343.94 326.25 336.42 Z" />
</g>
<g id="#092850ff">
<path fill="#092850" opacity="1.00" d=" M 136.19 336.75 C 140.50 336.67 144.81 336.66 149.12 336.64 C 155.53 353.29 162.81 369.58 169.36 386.18 C 164.59 386.15 159.83 386.14 155.06 386.13 C 153.90 383.28 152.77 380.42 151.63 377.57 C 145.43 377.55 139.23 377.66 133.03 377.64 C 131.95 380.49 130.94 383.37 129.82 386.22 C 125.14 386.12 120.45 386.15 115.77 386.17 C 122.36 369.61 129.14 353.11 136.19 336.75 M 142.48 353.23 C 140.62 357.72 138.75 362.20 137.15 366.79 C 140.65 366.84 144.15 366.85 147.65 366.82 C 145.88 362.31 144.43 357.67 142.48 353.23 Z" />
<path fill="#092850" opacity="1.00" d=" M 174.22 336.83 C 182.53 336.90 190.86 336.47 199.15 337.20 C 206.49 337.84 213.57 343.45 214.39 351.04 C 215.54 357.33 213.32 364.19 208.13 368.09 C 202.26 372.71 194.38 371.95 187.37 372.13 C 187.39 376.79 187.40 381.45 187.36 386.11 C 182.91 386.07 178.46 386.08 174.01 386.10 C 173.75 369.68 173.84 353.24 174.22 336.83 M 187.38 348.44 C 187.39 352.74 187.38 357.04 187.40 361.34 C 190.98 361.16 194.91 362.03 198.23 360.27 C 201.71 358.45 202.14 353.18 199.63 350.42 C 196.21 347.58 191.46 348.66 187.38 348.44 Z" />
<path fill="#092850" opacity="1.00" d=" M 216.25 386.13 C 223.05 369.63 229.75 353.09 236.80 336.69 C 241.03 336.68 245.26 336.71 249.49 336.69 C 256.37 353.12 262.98 369.67 269.82 386.12 C 265.11 386.13 260.41 386.11 255.70 386.22 C 254.22 383.49 253.10 380.58 252.24 377.59 C 246.05 377.50 239.86 377.39 233.68 377.67 C 232.59 380.52 231.48 383.37 230.31 386.20 C 225.62 386.15 220.93 386.11 216.25 386.13 M 242.84 353.59 C 240.85 357.88 239.46 362.40 237.75 366.79 C 241.19 366.83 244.63 366.83 248.08 366.82 C 246.44 362.37 245.26 357.71 242.84 353.59 Z" />
</g>
<g id="#0a2851ff">
<path fill="#0a2851" opacity="1.00" d=" M 274.73 336.79 C 279.13 336.82 283.54 336.78 287.95 336.79 C 287.98 342.98 287.96 349.17 287.96 355.36 C 293.59 355.31 299.22 355.51 304.85 355.25 C 304.81 349.10 304.57 342.94 304.91 336.80 C 309.34 336.80 313.76 336.86 318.19 336.74 C 318.13 353.19 318.22 369.65 318.12 386.10 C 313.69 386.08 309.27 386.07 304.85 386.05 C 304.81 379.86 304.81 373.67 304.84 367.48 C 299.21 367.46 293.58 367.52 287.95 367.48 C 287.84 373.68 287.95 379.89 287.82 386.09 C 283.35 386.08 278.89 386.11 274.43 385.92 C 274.61 369.54 274.02 353.16 274.73 336.79 Z" />
</g>
<g id="#fbffffff">
</g>
<g id="#fcffffff">
</g>
<g id="#0f264aff">
<path fill="#0f264a" opacity="1.00" d=" M 58.85 399.85 C 61.83 396.39 67.40 397.13 70.42 400.16 C 70.05 400.74 69.31 401.90 68.94 402.48 C 66.88 400.76 63.24 399.39 61.36 402.10 C 63.90 405.25 70.49 403.90 70.96 408.97 C 70.68 415.61 60.21 416.37 57.28 411.16 C 57.76 410.67 58.71 409.67 59.19 409.18 C 61.13 411.46 64.77 411.99 67.10 409.97 C 66.70 407.23 63.13 407.74 61.20 406.72 C 58.27 406.15 56.70 402.04 58.85 399.85 Z" />
</g>
<g id="#09294eff">
<path fill="#09294e" opacity="1.00" d=" M 72.89 398.07 C 74.18 398.07 75.47 398.08 76.76 398.09 C 76.67 403.45 76.74 408.81 76.70 414.18 C 75.43 414.21 74.16 414.24 72.90 414.29 C 72.91 408.88 72.91 403.47 72.89 398.07 Z" />
</g>
<g id="#0f254aff">
<path fill="#0f254a" opacity="1.00" d=" M 80.33 403.99 C 78.67 399.45 84.25 396.69 88.00 397.73 C 90.36 397.85 94.11 400.48 90.97 402.57 C 89.10 400.53 86.40 400.50 83.86 400.88 C 83.64 404.24 87.70 403.96 89.88 405.12 C 93.76 405.95 93.88 411.92 90.49 413.47 C 86.89 415.24 81.60 415.02 79.46 411.13 C 80.05 410.50 80.63 409.87 81.22 409.25 C 83.19 411.24 86.99 412.19 89.07 409.88 C 88.05 405.98 81.31 408.28 80.33 403.99 Z" />
<path fill="#0f254a" opacity="1.00" d=" M 263.24 398.03 C 264.72 398.02 266.21 398.00 267.70 398.01 C 270.00 403.34 272.14 408.74 274.17 414.18 C 272.79 414.22 271.41 414.26 270.03 414.30 C 269.57 413.12 269.10 411.95 268.65 410.77 C 266.47 410.78 264.30 410.78 262.13 410.78 C 261.68 411.96 261.23 413.15 260.78 414.33 C 259.46 414.27 258.14 414.22 256.82 414.17 C 258.96 408.79 261.02 403.38 263.24 398.03 M 263.32 407.66 C 264.77 407.66 266.23 407.66 267.69 407.68 C 266.95 405.72 266.21 403.77 265.50 401.82 C 264.79 403.77 264.05 405.71 263.32 407.66 Z" />
</g>
<g id="#0d2648ff">
<path fill="#0d2648" opacity="1.00" d=" M 94.12 398.06 C 98.46 397.94 102.81 397.98 107.16 397.97 C 107.13 398.83 107.08 400.54 107.05 401.40 C 105.53 401.38 104.01 401.38 102.49 401.38 C 102.52 405.63 102.50 409.88 102.49 414.14 C 101.54 414.18 99.64 414.26 98.68 414.30 C 98.72 409.98 98.69 405.67 98.69 401.35 C 97.04 401.35 95.39 401.36 93.74 401.37 C 93.83 400.54 94.02 398.89 94.12 398.06 Z" />
</g>
<g id="#0e254cff">
<path fill="#0e254c" opacity="1.00" d=" M 108.70 397.97 C 112.50 397.98 116.31 397.99 120.11 397.97 C 120.20 398.77 120.38 400.36 120.47 401.15 C 117.84 401.16 115.21 401.17 112.59 401.19 C 112.59 402.25 112.60 403.32 112.61 404.40 C 114.86 404.38 117.11 404.37 119.37 404.36 C 119.38 405.14 119.39 406.72 119.39 407.51 C 117.13 407.50 114.87 407.50 112.62 407.51 C 112.60 408.58 112.59 409.65 112.58 410.73 C 115.30 410.78 118.02 410.79 120.74 410.87 C 120.60 412.01 120.45 413.15 120.31 414.29 C 116.45 414.29 112.59 414.31 108.73 414.34 C 108.74 408.88 108.70 403.42 108.70 397.97 Z" />
<path fill="#0e254c" opacity="1.00" d=" M 266.91 419.78 C 271.23 420.02 276.34 418.83 279.88 422.01 C 283.58 425.74 282.64 433.22 277.60 435.33 C 274.15 436.39 270.46 435.93 266.91 436.03 C 266.90 430.61 266.92 425.19 266.91 419.78 M 270.91 423.06 C 270.91 426.26 270.90 429.48 270.91 432.69 C 272.85 432.49 274.98 432.74 276.70 431.63 C 278.67 429.94 278.77 426.73 277.28 424.71 C 275.62 422.99 273.07 423.30 270.91 423.06 Z" />
</g>
<g id="#0d284eff">
<path fill="#0d284e" opacity="1.00" d=" M 123.48 398.04 C 125.00 398.02 126.51 398.01 128.03 398.01 C 129.45 401.18 130.78 404.37 132.12 407.57 C 133.47 404.39 134.82 401.21 136.18 398.03 C 137.68 398.00 139.19 397.98 140.70 397.97 C 140.87 403.44 141.22 408.90 141.47 414.36 C 140.52 414.39 138.63 414.44 137.68 414.46 C 137.59 411.08 137.55 407.70 137.39 404.33 C 135.60 407.98 134.26 411.86 132.01 415.27 C 129.76 411.70 128.35 407.72 126.61 403.91 C 126.51 407.39 126.38 410.87 126.28 414.35 C 125.39 414.35 123.60 414.34 122.71 414.33 C 122.99 408.90 123.22 403.47 123.48 398.04 Z" />
</g>
<g id="#0d2549ff">
<path fill="#0d2549" opacity="1.00" d=" M 149.26 397.98 C 150.76 398.00 152.26 398.03 153.76 398.07 C 155.96 403.42 157.90 408.88 160.22 414.18 C 158.84 414.21 157.45 414.24 156.07 414.27 C 155.55 413.08 155.03 411.89 154.51 410.72 C 152.40 410.76 150.29 410.77 148.18 410.77 C 147.73 411.93 147.27 413.10 146.82 414.28 C 145.49 414.24 144.16 414.21 142.84 414.19 C 144.81 408.72 147.06 403.35 149.26 397.98 M 149.34 407.74 C 150.80 407.70 152.26 407.67 153.73 407.64 C 152.94 405.66 152.14 403.69 151.35 401.72 C 150.67 403.72 150.00 405.73 149.34 407.74 Z" />
</g>
<g id="#0c2547ff">
<path fill="#0c2547" opacity="1.00" d=" M 168.09 398.01 C 172.73 398.09 178.55 397.00 181.86 401.12 C 183.78 404.61 183.67 409.74 180.50 412.48 C 176.97 415.24 172.21 414.07 168.07 414.28 C 168.10 408.85 168.15 403.43 168.09 398.01 M 171.90 401.21 C 171.89 404.42 171.89 407.63 171.91 410.84 C 173.56 410.74 175.25 410.85 176.86 410.42 C 179.54 409.02 180.21 405.02 178.18 402.83 C 176.54 401.15 174.03 401.48 171.90 401.21 Z" />
</g>
<g id="#0d264bff">
<path fill="#0d264b" opacity="1.00" d=" M 185.27 397.98 C 189.11 397.95 192.95 397.98 196.80 397.98 C 196.85 398.78 196.95 400.40 197.00 401.20 C 194.36 401.18 191.73 401.17 189.10 401.15 C 189.08 401.96 189.05 403.57 189.03 404.38 C 191.32 404.36 193.61 404.36 195.90 404.34 C 195.95 405.12 196.06 406.69 196.11 407.47 C 193.77 407.47 191.43 407.48 189.09 407.48 C 189.07 408.58 189.06 409.69 189.06 410.81 C 191.78 410.79 194.51 410.78 197.24 410.77 C 197.18 411.65 197.04 413.41 196.98 414.29 C 193.07 414.29 189.17 414.28 185.27 414.32 C 185.33 408.87 185.30 403.43 185.27 397.98 Z" />
<path fill="#0d264b" opacity="1.00" d=" M 323.10 419.92 C 324.35 419.86 325.60 419.79 326.86 419.74 C 326.97 423.52 326.73 427.32 327.04 431.09 C 328.04 433.40 332.10 433.49 332.93 431.03 C 333.28 427.35 333.03 423.65 333.09 419.96 C 334.36 419.91 335.64 419.85 336.92 419.81 C 336.49 424.44 337.88 429.47 335.99 433.84 C 333.06 437.07 326.27 437.26 323.70 433.46 C 322.49 429.08 323.30 424.42 323.10 419.92 Z" />
</g>
<g id="#0f2549ff">
<path fill="#0f2549" opacity="1.00" d=" M 205.20 414.18 C 207.48 408.81 209.36 403.28 211.71 397.95 C 213.19 397.96 214.66 397.97 216.14 397.99 C 218.36 403.35 220.50 408.74 222.57 414.16 C 221.53 414.20 219.47 414.27 218.43 414.31 C 217.97 413.12 217.51 411.95 217.06 410.77 C 214.91 410.77 212.77 410.77 210.64 410.76 C 210.13 411.94 209.64 413.12 209.14 414.31 C 208.15 414.28 206.18 414.21 205.20 414.18 M 213.92 401.92 C 213.18 403.84 212.45 405.77 211.71 407.70 C 213.19 407.67 214.67 407.66 216.15 407.64 C 215.38 405.74 214.66 403.82 213.92 401.92 Z" />
</g>
<g id="#0d264cff">
<path fill="#0d264c" opacity="1.00" d=" M 224.28 401.39 C 227.70 396.46 235.55 396.36 239.16 401.16 C 238.47 401.57 237.10 402.39 236.41 402.80 C 234.59 401.42 232.30 400.43 230.01 401.26 C 225.44 402.47 226.00 410.60 230.86 410.95 C 233.20 411.60 234.95 410.10 235.94 408.18 C 234.97 408.13 233.04 408.05 232.08 408.00 C 232.12 407.26 232.20 405.76 232.24 405.01 C 234.52 404.98 236.80 404.96 239.09 404.94 C 239.09 407.96 239.09 410.99 239.13 414.02 C 236.51 412.45 233.84 415.03 231.07 414.47 C 224.71 414.65 220.56 406.49 224.28 401.39 Z" />
<path fill="#0d264c" opacity="1.00" d=" M 339.69 419.74 C 343.49 419.79 347.29 419.83 351.09 419.81 C 351.19 420.60 351.39 422.19 351.48 422.98 C 348.81 423.00 346.14 423.00 343.48 422.99 C 343.48 424.05 343.50 425.11 343.51 426.18 C 345.80 426.18 348.10 426.18 350.40 426.16 C 350.40 426.92 350.40 428.42 350.40 429.17 C 348.10 429.17 345.81 429.17 343.52 429.15 C 343.49 430.28 343.47 431.42 343.45 432.56 C 346.21 432.57 348.97 432.57 351.73 432.57 C 351.63 433.42 351.43 435.12 351.33 435.97 C 347.44 436.03 343.55 436.00 339.67 435.95 C 339.74 430.54 339.71 425.14 339.69 419.74 Z" />
</g>
<g id="#0f2748ff">
<path fill="#0f2748" opacity="1.00" d=" M 241.28 398.12 C 242.61 398.09 243.93 398.06 245.26 398.04 C 245.34 401.66 245.10 405.29 245.44 408.90 C 245.76 411.56 249.52 411.45 251.13 410.02 C 251.87 406.13 251.36 402.12 251.47 398.19 C 252.74 398.08 254.02 397.99 255.30 397.90 C 255.20 401.95 255.55 406.02 255.08 410.05 C 253.67 416.51 241.54 416.03 241.38 409.08 C 241.17 405.43 241.34 401.77 241.28 398.12 Z" />
</g>
<g id="#0c2548ff">
<path fill="#0c2548" opacity="1.00" d=" M 282.11 397.97 C 285.50 398.16 289.11 397.43 292.35 398.66 C 295.87 399.95 296.33 405.25 293.43 407.40 C 291.23 408.93 288.42 408.46 285.91 408.62 C 285.90 410.47 285.89 412.33 285.89 414.19 C 284.61 414.21 283.34 414.23 282.07 414.27 C 282.15 408.83 282.11 403.40 282.11 397.97 M 285.87 400.91 C 285.88 402.50 285.91 404.09 285.94 405.69 C 287.93 405.55 291.77 406.07 291.44 402.99 C 291.35 400.17 287.70 401.25 285.87 400.91 Z" />
</g>
<g id="#0e264aff">
<path fill="#0e264a" opacity="1.00" d=" M 302.18 398.04 C 307.55 396.04 314.67 399.82 314.28 406.00 C 314.61 412.30 307.50 416.15 301.97 414.01 C 294.69 412.01 294.63 399.74 302.18 398.04 M 304.05 401.12 C 300.35 401.73 299.03 406.88 301.57 409.45 C 304.40 412.66 310.89 410.59 310.44 405.98 C 310.82 402.55 307.14 400.24 304.05 401.12 Z" />
</g>
<g id="#0d2746ff">
<path fill="#0d2746" opacity="1.00" d=" M 315.74 397.95 C 320.07 397.99 324.41 397.98 328.74 397.97 C 328.71 399.10 328.67 400.23 328.65 401.37 C 327.07 401.37 325.50 401.36 323.93 401.36 C 323.91 405.63 323.89 409.89 323.92 414.15 C 322.64 414.20 321.37 414.25 320.10 414.31 C 320.11 409.99 320.13 405.67 320.06 401.35 C 318.49 401.36 316.92 401.37 315.36 401.38 C 315.45 400.52 315.64 398.81 315.74 397.95 Z" />
</g>
<g id="#0d2448ff">
<path fill="#0d2448" opacity="1.00" d=" M 332.27 398.04 C 333.75 398.01 335.24 397.99 336.74 397.97 C 338.85 403.41 341.33 408.70 343.19 414.23 C 342.24 414.23 340.35 414.22 339.40 414.22 C 338.43 413.30 338.12 411.90 337.50 410.76 C 335.38 410.77 333.26 410.78 331.14 410.78 C 330.69 411.94 330.24 413.10 329.80 414.28 C 328.45 414.24 327.11 414.22 325.78 414.20 C 328.06 408.86 330.03 403.40 332.27 398.04 M 334.66 401.71 C 333.85 403.70 333.04 405.70 332.24 407.70 C 333.76 407.70 335.28 407.69 336.80 407.69 C 336.09 405.69 335.39 403.70 334.66 401.71 Z" />
</g>
<g id="#0c2749ff">
<path fill="#0c2749" opacity="1.00" d=" M 344.11 397.97 C 347.81 398.17 351.72 397.39 355.28 398.65 C 358.09 400.02 357.52 403.64 355.56 405.51 C 359.19 407.19 358.72 412.90 354.89 413.94 C 351.34 414.65 347.68 414.19 344.09 414.30 C 344.14 408.86 344.04 403.41 344.11 397.97 M 348.06 400.87 C 348.09 402.07 348.13 403.28 348.17 404.50 C 350.10 404.41 352.05 404.22 353.88 403.55 C 353.49 400.49 350.41 401.00 348.06 400.87 M 348.09 407.06 C 348.08 408.46 348.07 409.86 348.06 411.27 C 350.53 411.17 353.56 411.75 354.68 408.89 C 353.17 406.66 350.39 407.22 348.09 407.06 Z" />
</g>
<g id="#0c274dff">
<path fill="#0c274d" opacity="1.00" d=" M 360.47 398.13 C 361.42 398.08 363.32 397.98 364.28 397.93 C 364.29 402.21 364.29 406.50 364.32 410.79 C 366.88 410.78 369.45 410.77 372.02 410.75 C 371.96 411.64 371.84 413.41 371.77 414.29 C 368.01 414.29 364.24 414.30 360.48 414.32 C 360.48 408.92 360.55 403.52 360.47 398.13 Z" />
</g>
<g id="#0e2548ff">
<path fill="#0e2548" opacity="1.00" d=" M 374.08 397.97 C 377.86 397.96 381.65 397.98 385.44 397.97 C 385.56 398.78 385.79 400.38 385.91 401.19 C 383.25 401.19 380.59 401.17 377.93 401.16 C 377.91 401.96 377.87 403.56 377.84 404.36 C 380.16 404.37 382.48 404.39 384.81 404.40 C 384.79 405.42 384.77 406.45 384.76 407.48 C 382.48 407.49 380.21 407.50 377.94 407.51 C 377.91 408.33 377.87 409.98 377.85 410.80 C 380.61 410.79 383.37 410.79 386.13 410.76 C 386.03 411.64 385.82 413.40 385.72 414.28 C 381.83 414.33 377.95 414.31 374.07 414.29 C 374.09 408.85 374.08 403.41 374.08 397.97 Z" />
</g>
<g id="#f6ffffff">
</g>
<g id="#fdfeffff">
</g>
<g id="#f9ffffff">
</g>
<g id="#f1feffff">
</g>
<g id="#faffffff">
</g>
<g id="#102547ff">
<path fill="#102547" opacity="1.00" d=" M 22.38 420.00 C 23.87 419.93 25.36 419.86 26.85 419.80 C 28.07 421.86 29.26 423.94 30.48 426.01 C 31.72 423.94 32.97 421.86 34.25 419.81 C 35.62 419.86 37.00 419.92 38.38 419.99 C 35.37 424.93 31.65 429.81 31.65 435.88 C 30.37 435.89 29.10 435.90 27.82 435.92 C 28.12 433.94 28.41 431.96 28.70 429.99 C 26.59 426.66 24.54 423.30 22.38 420.00 Z" />
</g>
<g id="#0f2448ff">
<path fill="#0f2448" opacity="1.00" d=" M 50.90 420.88 C 51.57 418.98 54.13 420.13 55.55 419.64 C 57.96 424.94 60.04 430.38 62.16 435.80 C 60.77 435.86 59.38 435.93 57.99 436.00 C 57.56 434.86 57.12 433.72 56.68 432.60 C 54.50 432.57 52.31 432.57 50.13 432.58 C 49.71 433.71 49.30 434.84 48.88 435.98 C 47.53 435.94 46.18 435.90 44.83 435.87 C 46.99 430.93 48.66 425.78 50.90 420.88 M 51.30 429.36 C 52.76 429.38 54.21 429.38 55.67 429.41 C 55.00 427.50 54.33 425.59 53.65 423.69 C 52.82 425.56 52.06 427.46 51.30 429.36 Z" />
</g>
<g id="#0c274bff">
<path fill="#0c274b" opacity="1.00" d=" M 63.09 419.89 C 64.41 419.86 65.73 419.83 67.05 419.81 C 67.08 424.06 67.07 428.31 67.08 432.56 C 69.63 432.57 72.18 432.58 74.73 432.58 C 74.62 433.42 74.41 435.11 74.31 435.96 C 70.56 436.04 66.81 436.03 63.07 435.94 C 63.12 430.59 63.10 425.24 63.09 419.89 Z" />
</g>
<g id="#0f2546ff">
<path fill="#0f2546" opacity="1.00" d=" M 75.88 428.01 C 75.36 421.39 83.99 416.91 89.19 420.83 C 90.78 421.77 90.40 423.49 89.38 424.71 C 87.55 423.38 85.36 422.07 83.03 423.04 C 78.77 424.17 78.85 431.29 83.04 432.50 C 85.70 433.71 87.95 431.72 89.81 430.10 C 90.39 431.66 91.06 433.37 89.38 434.52 C 84.43 438.72 75.55 434.66 75.88 428.01 Z" />
</g>
<g id="#0e2348ff">
<path fill="#0e2348" opacity="1.00" d=" M 92.01 435.84 C 93.95 430.38 96.28 425.06 98.60 419.74 C 100.03 419.76 101.47 419.78 102.91 419.80 C 105.14 425.13 107.05 430.58 109.38 435.87 C 107.97 435.89 106.56 435.91 105.16 435.94 C 104.72 434.81 104.28 433.69 103.84 432.57 C 101.68 432.57 99.52 432.57 97.36 432.59 C 96.91 433.71 96.47 434.84 96.02 435.97 C 94.68 435.92 93.34 435.88 92.01 435.84 M 98.48 429.36 C 99.96 429.36 101.44 429.36 102.92 429.37 C 102.17 427.49 101.42 425.60 100.65 423.73 C 99.88 425.59 99.19 427.47 98.48 429.36 Z" />
</g>
<g id="#0d274bff">
<path fill="#0d274b" opacity="1.00" d=" M 110.30 419.89 C 111.58 419.88 112.85 419.87 114.13 419.87 C 116.76 423.05 118.95 426.57 121.49 429.82 C 121.53 426.51 121.51 423.21 121.47 419.91 C 122.38 419.87 124.19 419.80 125.09 419.76 C 125.10 425.18 125.11 430.60 125.08 436.03 C 123.75 436.00 122.43 435.98 121.10 435.96 C 118.72 432.59 116.41 429.17 113.90 425.90 C 113.91 429.20 113.90 432.50 113.95 435.80 C 112.72 435.85 111.50 435.91 110.27 435.98 C 110.32 430.61 110.28 425.25 110.30 419.89 Z" />
</g>
<g id="#0d2649ff">
<path fill="#0d2649" opacity="1.00" d=" M 127.13 419.80 C 131.45 419.79 135.77 419.78 140.09 419.76 C 140.09 420.62 140.08 422.35 140.07 423.21 C 138.55 423.18 137.02 423.15 135.50 423.14 C 135.51 427.37 135.49 431.59 135.50 435.83 C 134.52 435.86 132.56 435.92 131.58 435.96 C 131.59 431.70 131.59 427.44 131.59 423.19 C 129.97 423.16 128.35 423.14 126.73 423.14 C 126.83 422.30 127.03 420.64 127.13 419.80 Z" />
</g>
<g id="#0e2448ff">
<path fill="#0e2448" opacity="1.00" d=" M 144.15 419.75 C 145.57 419.75 147.00 419.76 148.42 419.76 C 150.72 425.07 152.62 430.54 154.96 435.84 C 153.53 435.89 152.11 435.95 150.69 436.01 C 150.29 434.85 149.89 433.70 149.49 432.56 C 147.33 432.57 145.17 432.57 143.01 432.57 C 142.55 433.69 142.11 434.80 141.66 435.93 C 140.25 435.90 138.85 435.88 137.44 435.86 C 139.62 430.46 141.87 425.10 144.15 419.75 M 143.97 429.35 C 145.49 429.36 147.01 429.39 148.53 429.42 C 147.77 427.50 147.00 425.58 146.22 423.67 C 145.45 425.55 144.72 427.45 143.97 429.35 Z" />
</g>
<g id="#0f2646ff">
<path fill="#0f2646" opacity="1.00" d=" M 155.89 419.77 C 159.67 420.01 163.74 419.12 167.30 420.70 C 170.43 422.23 169.82 426.88 167.22 428.65 C 168.79 430.76 169.63 433.25 169.95 435.84 C 168.54 435.88 167.14 435.91 165.75 435.95 C 165.80 432.39 163.70 428.90 159.72 429.23 C 159.70 431.42 159.71 433.61 159.71 435.81 C 158.44 435.87 157.18 435.94 155.91 436.01 C 155.90 430.60 155.92 425.19 155.89 419.77 M 159.67 423.03 C 159.67 424.62 159.68 426.21 159.68 427.80 C 161.84 427.74 165.62 428.42 165.59 425.19 C 165.31 422.18 161.72 423.18 159.67 423.03 Z" />
</g>
<g id="#0d274aff">
<path fill="#0d274a" opacity="1.00" d=" M 172.08 419.93 C 173.40 419.88 174.73 419.83 176.05 419.79 C 176.07 425.14 176.06 430.50 176.07 435.86 C 174.73 435.88 173.40 435.91 172.07 435.94 C 172.12 430.60 172.10 425.27 172.08 419.93 Z" />
</g>
<g id="#0b284bff">
<path fill="#0b284b" opacity="1.00" d=" M 179.50 419.95 C 180.45 419.90 182.35 419.80 183.30 419.75 C 183.29 424.03 183.29 428.32 183.31 432.60 C 185.87 432.59 188.43 432.57 190.99 432.56 C 190.94 433.41 190.84 435.10 190.79 435.95 C 187.03 436.00 183.28 436.00 179.53 436.02 C 179.49 430.66 179.49 425.30 179.50 419.95 Z" />
</g>
<g id="#0e2649ff">
<path fill="#0e2649" opacity="1.00" d=" M 193.10 419.91 C 194.37 419.88 195.65 419.85 196.93 419.84 C 196.90 424.08 196.89 428.33 196.90 432.59 C 199.45 432.52 202.00 432.61 204.54 432.70 C 204.74 432.97 205.13 433.50 205.32 433.76 C 205.48 433.79 205.79 433.84 205.95 433.87 C 207.83 429.16 209.47 424.36 211.55 419.74 C 213.00 419.75 214.45 419.76 215.90 419.78 C 218.16 425.08 220.31 430.44 222.32 435.84 C 220.93 435.87 219.54 435.91 218.15 435.95 C 217.73 434.83 217.31 433.72 216.90 432.61 C 214.75 432.58 212.61 432.55 210.47 432.52 C 209.98 433.65 209.49 434.78 209.01 435.92 C 203.70 435.79 198.39 436.06 193.08 436.00 C 193.11 430.63 193.09 425.27 193.10 419.91 M 211.52 429.34 C 212.96 429.36 214.41 429.37 215.86 429.40 C 215.16 427.45 214.47 425.51 213.81 423.56 C 213.04 425.48 212.28 427.41 211.52 429.34 Z" />
</g>
<g id="#0e254aff">
<path fill="#0e254a" opacity="1.00" d=" M 223.51 419.76 C 227.73 420.04 232.64 418.84 236.19 421.80 C 240.51 425.49 239.14 434.05 233.41 435.57 C 230.17 436.30 226.81 435.92 223.52 436.02 C 223.48 430.60 223.51 425.18 223.51 419.76 M 227.44 422.98 C 227.40 426.20 227.40 429.43 227.42 432.66 C 229.43 432.46 231.78 432.90 233.43 431.44 C 235.30 429.34 235.14 425.76 232.97 423.92 C 231.24 423.16 229.28 423.24 227.44 422.98 Z" />
<path fill="#0e254a" opacity="1.00" d=" M 284.44 419.77 C 288.26 419.82 292.08 419.82 295.90 419.81 C 296.00 420.60 296.19 422.19 296.29 422.98 C 293.62 422.98 290.96 422.98 288.30 422.96 C 288.30 423.77 288.31 425.38 288.31 426.19 C 290.59 426.19 292.88 426.19 295.16 426.18 C 295.17 426.93 295.18 428.42 295.19 429.16 C 292.87 429.16 290.55 429.16 288.24 429.18 C 288.25 430.30 288.27 431.43 288.29 432.56 C 291.02 432.58 293.75 432.59 296.48 432.61 C 296.40 433.44 296.23 435.12 296.15 435.96 C 292.25 436.00 288.34 436.03 284.44 436.01 C 284.40 430.60 284.41 425.18 284.44 419.77 Z" />
</g>
<g id="#0f2649ff">
<path fill="#0f2649" opacity="1.00" d=" M 244.34 420.44 C 249.87 417.30 258.55 421.14 257.89 428.07 C 258.02 434.13 251.19 437.62 245.87 435.80 C 238.91 434.41 237.87 423.16 244.34 420.44 M 246.31 423.37 C 243.42 424.94 243.02 429.45 245.52 431.56 C 248.11 434.10 253.26 432.70 253.79 428.95 C 255.12 424.66 250.02 421.10 246.31 423.37 Z" />
<path fill="#0f2649" opacity="1.00" d=" M 369.91 419.79 C 371.38 419.76 372.85 419.74 374.33 419.72 C 376.44 425.13 378.85 430.42 380.85 435.88 C 379.51 435.93 378.17 435.94 376.84 435.93 C 376.06 434.92 375.67 433.68 375.10 432.57 C 372.99 432.57 370.89 432.58 368.79 432.60 C 368.43 433.70 368.07 434.80 367.71 435.91 C 366.27 435.89 364.84 435.87 363.41 435.85 C 365.65 430.53 367.83 425.18 369.91 419.79 M 369.89 429.41 C 371.40 429.38 372.93 429.37 374.45 429.35 C 373.73 427.48 373.01 425.62 372.26 423.78 C 371.42 425.63 370.65 427.51 369.89 429.41 Z" />
</g>
<g id="#0d274dff">
<path fill="#0d274d" opacity="1.00" d=" M 305.49 419.98 C 306.49 419.92 308.50 419.80 309.50 419.75 C 309.49 421.75 309.48 423.75 309.46 425.76 C 311.67 425.78 313.88 425.79 316.10 425.79 C 316.08 423.83 316.07 421.87 316.07 419.91 C 317.34 419.86 318.62 419.82 319.89 419.78 C 319.94 425.13 319.88 430.49 319.93 435.85 C 318.63 435.87 317.34 435.90 316.04 435.94 C 316.05 433.68 316.06 431.42 316.07 429.16 C 313.88 429.17 311.69 429.18 309.50 429.21 C 309.49 431.41 309.48 433.62 309.45 435.83 C 308.46 435.87 306.47 435.95 305.48 435.99 C 305.53 430.65 305.48 425.31 305.49 419.98 Z" />
</g>
<g id="#0d2747ff">
<path fill="#0d2747" opacity="1.00" d=" M 353.11 419.80 C 357.42 419.78 361.74 419.80 366.06 419.76 C 366.07 420.61 366.09 422.31 366.09 423.17 C 364.52 423.17 362.96 423.19 361.39 423.21 C 361.39 427.42 361.45 431.63 361.39 435.85 C 360.08 435.87 358.77 435.90 357.47 435.94 C 357.52 431.68 357.52 427.42 357.47 423.17 C 355.88 423.16 354.29 423.16 352.71 423.15 C 352.81 422.32 353.01 420.64 353.11 419.80 Z" />
</g>
<g id="#0d254aff">
<path fill="#0d254a" opacity="1.00" d=" M 382.08 419.78 C 383.64 419.78 385.20 419.78 386.77 419.79 C 388.03 422.98 389.35 426.15 390.80 429.26 C 392.35 426.20 393.56 422.99 394.77 419.80 C 396.31 419.78 397.84 419.77 399.39 419.76 C 399.77 425.17 399.99 430.60 400.22 436.02 C 399.28 436.07 397.39 436.15 396.45 436.19 C 396.33 432.76 396.24 429.33 396.06 425.91 C 394.13 429.23 393.46 433.23 391.19 436.33 L 389.90 436.03 C 388.10 432.75 387.06 429.11 385.44 425.75 C 385.28 429.20 385.21 432.65 385.07 436.10 C 384.13 436.08 382.25 436.04 381.31 436.02 C 381.58 430.60 381.86 425.19 382.08 419.78 Z" />
</g>
<g id="#0e2648ff">
<path fill="#0e2648" opacity="1.00" d=" M 406.33 420.50 C 410.40 418.38 416.21 419.33 418.87 423.24 C 420.89 427.09 420.12 432.75 416.11 435.04 C 412.40 436.75 407.26 436.83 404.33 433.60 C 400.74 429.91 401.53 422.79 406.33 420.50 M 408.31 423.40 C 404.56 425.45 405.62 432.38 410.09 432.76 C 413.45 433.52 416.82 430.29 416.03 426.89 C 415.73 423.27 411.22 421.75 408.31 423.40 Z" />
</g>
<g id="#f7ffffff">
</g>
<g id="#fbfeffff">
</g>
<g id="#feffffff">
</g>
<g id="#f3ffffff">
</g>
</svg>
